<svg width="79" height="612" viewBox="0 0 79 612" fill="none" xmlns="http://www.w3.org/2000/svg">
<path d="M39 612H79L79 306L79 0H39H-1L-1 306L-1 612H39ZM5.01058 591.825C5.20106 591.439 6.30159 591.295 8.43916 591.391L11.5926 591.536L11.6561 596.303C11.6984 599.384 11.6349 601.262 11.4656 601.696C11.1693 602.514 5.77249 602.659 5.1164 601.888C4.75661 601.455 4.71429 600.829 4.71429 596.881C4.71429 593.606 4.79894 592.21 5.01058 591.825ZM4.96825 561.056C5.34921 560.189 11.1481 560.238 11.4656 561.152C11.6349 561.586 11.6984 563.464 11.6561 566.545L11.5926 571.312L8.43916 571.457C6.30159 571.553 5.20106 571.409 5.01058 571.023C4.62963 570.301 4.5873 561.923 4.96825 561.056ZM4.8836 530.721C5.03175 530.288 5.85715 530.143 8.33334 530.24L11.5926 530.384L11.6561 535.199C11.6984 539.292 11.6561 540.11 11.3386 540.592C11.1058 541.025 10.1111 541.218 8.18519 541.218C4.67196 541.218 4.71429 541.266 4.71429 535.536C4.71429 533.225 4.79894 531.058 4.8836 530.721ZM4.96825 499.904C5.32804 499.086 11.0847 499.086 11.4444 499.904C11.6138 500.29 11.6984 502.119 11.6984 504.864C11.6984 507.608 11.6138 509.438 11.4444 509.823C11.2751 510.209 10.2381 510.401 8.20635 510.401C6.17461 510.401 5.13757 510.209 4.96825 509.823C4.62963 509.053 4.62963 500.675 4.96825 499.904ZM5.05291 469.28C5.4762 468.269 10.7672 468.173 11.3386 469.136C11.6561 469.617 11.6984 470.436 11.6561 474.529L11.5926 479.344L8.33334 479.488C5.85715 479.585 5.03175 479.44 4.8836 479.007C4.79894 478.67 4.71429 476.503 4.71429 474.192C4.71429 471.014 4.79894 469.858 5.05291 469.28ZM4.96825 438.752C5.24339 438.127 10.7037 437.886 11.3598 438.464C11.6349 438.704 11.6984 439.619 11.6984 443.423C11.6984 446.409 11.6138 448.286 11.4444 448.672C11.0847 449.49 5.32804 449.49 4.96825 448.672C4.62963 447.901 4.62963 439.523 4.96825 438.752ZM5.1164 407.84C5.77249 407.069 11.1693 407.214 11.4656 408.032C11.6349 408.465 11.6984 410.343 11.6561 413.425L11.5926 418.192L8.43916 418.336C6.30159 418.433 5.20106 418.288 5.01058 417.903C4.79894 417.518 4.71429 416.121 4.71429 412.847C4.71429 408.899 4.75661 408.273 5.1164 407.84ZM5.01058 377.552C5.20106 377.167 6.30159 377.023 8.43916 377.119L11.5926 377.264L11.6561 382.031C11.6984 385.112 11.6349 386.99 11.4656 387.423C11.1481 388.338 5.34921 388.386 4.96825 387.52C4.5873 386.653 4.62963 378.275 5.01058 377.552ZM4.96825 346.784C5.34921 345.917 11.1481 345.965 11.4656 346.88C11.6349 347.314 11.6984 349.191 11.6561 352.273L11.5926 357.04L8.43916 357.185C6.30159 357.281 5.20106 357.136 5.01058 356.751C4.62963 356.029 4.5873 347.651 4.96825 346.784ZM5.01058 316.401C5.20106 316.015 6.30159 315.871 8.43916 315.967L11.5926 316.112L11.6561 320.927C11.6984 325.02 11.6561 325.838 11.3386 326.32C10.8942 327.09 5.73016 327.186 5.1164 326.464C4.75661 326.031 4.71429 325.405 4.71429 321.457C4.71429 318.182 4.79894 316.786 5.01058 316.401ZM4.96825 285.632C5.13757 285.247 6.17461 285.054 8.20635 285.054C10.2381 285.054 11.2751 285.247 11.4444 285.632C11.6138 286.017 11.6984 287.895 11.6984 290.881C11.6984 294.685 11.6349 295.599 11.3598 295.84C10.7037 296.418 5.24339 296.177 4.96825 295.551C4.62963 294.781 4.62963 286.403 4.96825 285.632ZM4.8836 255.297C5.03175 254.864 5.85715 254.719 8.33334 254.815L11.5926 254.96L11.6561 259.775C11.6984 263.868 11.6561 264.686 11.3386 265.168C11.1058 265.601 10.1111 265.794 8.18519 265.794C4.67196 265.794 4.71429 265.842 4.71429 260.112C4.71429 257.801 4.79894 255.634 4.8836 255.297ZM4.96825 224.48C5.13757 224.095 6.17461 223.902 8.20635 223.902C10.2381 223.902 11.2751 224.095 11.4444 224.48C11.6138 224.865 11.6984 226.695 11.6984 229.44C11.6984 232.184 11.6138 234.014 11.4444 234.399C11.2751 234.785 10.2381 234.977 8.20635 234.977C6.17461 234.977 5.13757 234.785 4.96825 234.399C4.62963 233.629 4.62963 225.251 4.96825 224.48ZM5.05291 193.856C5.4762 192.845 10.7672 192.749 11.3386 193.712C11.6561 194.193 11.6984 195.012 11.6561 199.105L11.5926 203.92L8.33334 204.064C5.85715 204.161 5.03175 204.016 4.8836 203.583C4.79894 203.246 4.71429 201.079 4.71429 198.768C4.71429 195.59 4.79894 194.434 5.05291 193.856ZM5.01058 163.28C5.20106 162.895 6.30159 162.751 8.43916 162.847L11.5926 162.991L11.6561 167.758C11.6984 170.84 11.6349 172.718 11.4656 173.151C11.1481 174.066 5.34921 174.114 4.96825 173.248C4.5873 172.381 4.62963 164.003 5.01058 163.28ZM5.1164 132.415C5.77249 131.645 11.1693 131.789 11.4656 132.608C11.6349 133.041 11.6984 134.919 11.6561 138.001L11.5926 142.768L8.43916 142.912C6.30159 143.009 5.20106 142.864 5.01058 142.479C4.79894 142.094 4.71429 140.697 4.71429 137.423C4.71429 133.475 4.75661 132.849 5.1164 132.415ZM5.01058 102.128C5.20106 101.743 6.30159 101.599 8.43916 101.695L11.5926 101.84L11.6561 106.606C11.6984 109.688 11.6349 111.566 11.4656 111.999C11.1693 112.818 5.77249 112.962 5.1164 112.192C4.75661 111.759 4.71429 111.133 4.71429 107.184C4.71429 103.91 4.79894 102.514 5.01058 102.128ZM4.96825 71.3599C5.34921 70.4932 11.1481 70.5413 11.4656 71.4562C11.6349 71.8895 11.6984 73.7675 11.6561 76.8491L11.5926 81.6161L8.43916 81.7605C6.30159 81.8568 5.20106 81.7123 5.01058 81.3271C4.62963 80.6049 4.5873 72.2266 4.96825 71.3599ZM4.8836 41.0247C5.03175 40.5914 5.85715 40.4469 8.33334 40.5432L11.5926 40.6877L11.6561 45.5027C11.6984 49.5956 11.6561 50.4142 11.3386 50.8957C11.1058 51.329 10.1111 51.5217 8.18519 51.5217C4.67196 51.5217 4.71429 51.5698 4.71429 45.8398C4.71429 43.5286 4.79894 41.3618 4.8836 41.0247ZM4.96825 10.2081C5.32804 9.38947 11.0847 9.38947 11.4444 10.2081C11.6138 10.5933 11.6984 12.423 11.6984 15.1676C11.6984 17.9122 11.6138 19.7419 11.4444 20.1271C11.0847 20.9457 5.32804 20.9457 4.96825 20.1271C4.62963 19.3568 4.62963 10.9785 4.96825 10.2081ZM38.8942 464.658H62.7037L62.7037 536.884V609.111H38.9365C25.8571 609.111 15.1058 609.015 15.0635 608.918C15.0212 608.822 15 576.32 15.0423 536.692L15.0847 464.658H38.8942ZM38.9153 311.537H62.7037L62.6614 383.86L62.5979 456.231L38.8519 456.376L15.0847 456.472L15.0423 384.39C15 344.713 15 312.115 15.0423 311.874C15.0847 311.682 25.8148 311.537 38.9153 311.537ZM38.8307 158.658H62.5979L62.5979 230.884V303.111L39 303.255C26.0265 303.304 15.2963 303.255 15.1905 303.159C15.0423 303.063 15 278.602 15.0212 230.836L15.0847 158.658H38.8307ZM38.8307 5.53741H62.5979V77.764L62.5979 149.991L39 150.135C26.0265 150.183 15.2963 150.135 15.1905 150.039C15.0423 149.942 15 125.482 15.0212 77.7158L15.0847 5.53741H38.8307ZM66.7672 591.873C66.9365 591.488 67.9947 591.295 70.1534 591.295C73.836 591.295 73.709 591.102 73.709 596.881C73.709 602.322 73.6878 602.37 70.0899 602.37C66.4709 602.37 66.5132 602.466 66.5132 596.64C66.5132 594.04 66.5979 592.258 66.7672 591.873ZM66.8519 561.249C67.1058 560.623 67.7196 560.478 70.1111 560.478C73.7302 560.478 73.709 560.43 73.709 565.823C73.709 571.746 73.836 571.553 70.1534 571.553C67.9947 571.553 66.9365 571.361 66.7672 570.975C66.3651 570.06 66.4286 562.164 66.8519 561.249ZM66.7672 530.721C66.9365 530.336 67.9947 530.143 70.1534 530.143C73.8148 530.143 73.709 529.999 73.709 535.536C73.709 541.122 73.6667 541.218 70.1746 541.218C66.5132 541.218 66.5132 541.218 66.5132 535.44C66.5132 532.888 66.619 531.058 66.7672 530.721ZM66.7249 500.241C66.9365 499.423 67.2116 499.327 70.1111 499.327C73.836 499.327 73.709 499.134 73.709 504.864C73.709 510.594 73.836 510.401 70.1111 510.401C67.3386 510.401 66.9365 510.305 66.746 509.535C66.4497 508.475 66.4497 501.445 66.7249 500.241ZM66.9788 469.28C67.3598 468.654 68.0582 468.51 70.1534 468.51C73.582 468.51 73.709 468.702 73.709 474.095C73.709 479.777 73.8148 479.585 70.1534 479.585C67.9947 479.585 66.9365 479.392 66.7672 479.007C66.5979 478.622 66.5132 476.84 66.5132 474.24C66.5132 470.436 66.5556 469.954 66.9788 469.28ZM66.7249 439.09C66.9365 438.271 67.2116 438.175 70.1111 438.175C73.836 438.175 73.709 437.982 73.709 443.905C73.709 449.298 73.7513 449.249 70.0053 449.249C67.3175 449.249 66.9365 449.153 66.746 448.383C66.4497 447.323 66.4497 440.293 66.7249 439.09ZM66.8519 408.128C67.1058 407.502 67.7196 407.358 70.0476 407.358C73.6878 407.358 73.709 407.406 73.709 412.751C73.709 418.625 73.836 418.433 70.1534 418.433C67.9947 418.433 66.9365 418.24 66.7672 417.855C66.3651 416.94 66.4286 409.043 66.8519 408.128ZM66.7672 377.601C66.9365 377.215 67.9947 377.023 70.1534 377.023C73.836 377.023 73.709 376.83 73.709 382.753C73.709 388.146 73.7302 388.098 70.1111 388.098C66.4497 388.098 66.5132 388.194 66.5132 382.368C66.5132 379.767 66.5979 377.986 66.7672 377.601ZM66.8519 346.977C67.1058 346.351 67.7196 346.206 70.1111 346.206C73.7302 346.206 73.709 346.158 73.709 351.551C73.709 357.473 73.836 357.281 70.1534 357.281C67.9947 357.281 66.9365 357.088 66.7672 356.703C66.3651 355.788 66.4286 347.891 66.8519 346.977ZM66.7672 316.449C66.9365 316.064 67.9947 315.871 70.1534 315.871C73.836 315.871 73.709 315.678 73.709 321.457C73.709 326.898 73.6878 326.946 70.0899 326.946C66.4709 326.946 66.5132 327.042 66.5132 321.216C66.5132 318.616 66.5979 316.834 66.7672 316.449ZM66.7249 285.969C66.9365 285.151 67.2116 285.054 70.0053 285.054C73.7513 285.054 73.709 285.006 73.709 290.399C73.709 296.322 73.836 296.129 70.1111 296.129C67.3386 296.129 66.9365 296.033 66.746 295.262C66.4497 294.203 66.4497 287.173 66.7249 285.969ZM66.7672 255.297C66.9365 254.912 67.9947 254.719 70.1534 254.719C73.8148 254.719 73.709 254.527 73.709 260.208C73.709 265.601 73.582 265.794 70.1534 265.794C66.5556 265.794 66.5132 265.746 66.5132 260.064C66.5132 257.464 66.5979 255.682 66.7672 255.297ZM66.7249 224.817C66.9365 223.999 67.2116 223.902 70.1111 223.902C73.836 223.902 73.709 223.71 73.709 229.632C73.709 235.025 73.7513 234.977 70.0053 234.977C67.3175 234.977 66.9365 234.881 66.746 234.11C66.4497 233.051 66.4497 226.021 66.7249 224.817ZM66.8519 193.856C67.1058 193.23 67.7196 193.086 70.1111 193.086C73.6667 193.086 73.709 193.134 73.709 198.768C73.709 204.305 73.8148 204.161 70.1534 204.161C67.9947 204.161 66.9365 203.968 66.7672 203.583C66.3651 202.668 66.4286 194.771 66.8519 193.856ZM66.7672 163.328C66.9365 162.943 67.9947 162.751 70.1534 162.751C73.836 162.751 73.709 162.558 73.709 168.481C73.709 173.874 73.7302 173.825 70.1111 173.825C66.4497 173.825 66.5132 173.922 66.5132 168.095C66.5132 165.495 66.5979 163.714 66.7672 163.328ZM66.8519 132.704C67.1058 132.078 67.7196 131.934 70.0476 131.934C73.6878 131.934 73.709 131.982 73.709 137.327C73.709 143.201 73.836 143.009 70.1534 143.009C67.9947 143.009 66.9365 142.816 66.7672 142.431C66.3651 141.516 66.4286 133.619 66.8519 132.704ZM66.7672 102.177C66.9365 101.791 67.9947 101.599 70.1534 101.599C73.836 101.599 73.709 101.406 73.709 107.184C73.709 112.625 73.6878 112.673 70.0899 112.673C66.4709 112.673 66.5132 112.77 66.5132 106.944C66.5132 104.343 66.5979 102.562 66.7672 102.177ZM66.8519 71.5525C67.1058 70.9265 67.7196 70.7821 70.1111 70.7821C73.7302 70.7821 73.709 70.7339 73.709 76.1268C73.709 82.0494 73.836 81.8568 70.1534 81.8568C67.9947 81.8568 66.9365 81.6642 66.7672 81.279C66.3651 80.3641 66.4286 72.4673 66.8519 71.5525ZM66.7672 41.0247C66.9365 40.6395 67.9947 40.4469 70.1534 40.4469C73.8148 40.4469 73.709 40.2543 73.709 45.9362C73.709 51.329 73.6032 51.5217 70.0688 51.5217C66.5132 51.5217 66.5132 51.5217 66.5132 45.7435C66.5132 43.1915 66.619 41.3618 66.7672 41.0247ZM66.7249 10.5451C66.9365 9.7265 67.2116 9.63025 70.1111 9.63025C73.836 9.63025 73.709 9.43762 73.709 15.1676C73.709 20.8976 73.836 20.705 70.1111 20.705C67.3386 20.705 66.9365 20.6086 66.746 19.8383C66.4497 18.7789 66.4497 11.7489 66.7249 10.5451Z" fill="black"/>
</svg>
