<svg width="349" height="205" viewBox="0 0 349 205" fill="none" xmlns="http://www.w3.org/2000/svg">
<path d="M0 98L331.5 5.33528V190.665L0 98Z" fill="white"/>
<g clip-path="url(#clip0_269_1788)">
<path d="M26.7452 60.25C26.7452 64.0293 25.3363 67.6539 22.8285 70.3263C20.3206 72.9987 16.9192 74.5 13.3726 74.5C9.82597 74.5 6.4246 72.9987 3.91675 70.3263C1.4089 67.6539 0 64.0293 0 60.25C0 56.4707 1.4089 52.8461 3.91675 50.1737C6.4246 47.5013 9.82597 46 13.3726 46C16.9192 46 20.3206 47.5013 22.8285 50.1737C25.3363 52.8461 26.7452 56.4707 26.7452 60.25Z" fill="black"/>
<path d="M40.1187 74.5C36.5721 74.5 33.1707 72.9987 30.6628 70.3263C28.155 67.6539 26.7461 64.0293 26.7461 60.25C26.7461 56.4707 28.155 52.8461 30.6628 50.1737C33.1707 47.5013 36.5721 46 40.1187 46C43.6653 46 47.0667 47.5013 49.5746 50.1737C52.0824 52.8461 53.4913 56.4707 53.4913 60.25C53.4913 64.0293 52.0824 67.6539 49.5746 70.3263C47.0667 72.9987 43.6653 74.5 40.1187 74.5Z" fill="black"/>
<path d="M40.1178 74.5H42.3466C44.5089 74.4997 46.5976 75.3369 48.2238 76.8557C49.8499 78.3744 50.9026 80.4712 51.1859 82.7555L65.0488 76.191C65.7274 75.8688 66.4707 75.7325 67.2113 75.7943C67.9519 75.8562 68.6663 76.1143 69.2895 76.5452C69.9126 76.9761 70.4248 77.5661 70.7796 78.2616C71.1343 78.9572 71.3203 79.7361 71.3206 80.5278V115.972C71.3199 116.763 71.1339 117.542 70.7794 118.237C70.425 118.931 69.9132 119.521 69.2907 119.952C68.6681 120.383 67.9545 120.641 67.2145 120.703C66.4745 120.766 65.7316 120.63 65.0533 120.309L51.1859 113.745C50.9026 116.029 49.8499 118.126 48.2238 119.644C46.5976 121.163 44.5089 122 42.3466 122H8.91507C6.55065 122 4.28306 120.999 2.61116 119.218C0.939264 117.436 0 115.02 0 112.5V84C0 81.4804 0.939264 79.0641 2.61116 77.2825C4.28306 75.5009 6.55065 74.5 8.91507 74.5H40.1178Z" fill="black"/>
</g>
<defs>
<clipPath id="clip0_269_1788">
<rect width="71.3206" height="76" fill="white" transform="translate(0 46)"/>
</clipPath>
</defs>
</svg>
