<svg width="40" height="36" viewBox="0 0 47 44" fill="none" xmlns="http://www.w3.org/2000/svg">
<g filter="url(#filter0_d_227_560)">
<path d="M41.374 13.0351C41.3257 15.784 40.2403 18.4061 38.3505 20.3266C34.0006 24.7488 29.7757 29.3656 25.269 33.622C24.2362 34.5832 22.6259 34.5191 21.6721 33.4787L9.14396 19.8133C5.35719 15.6826 5.47246 9.12369 9.40204 5.12873C13.3702 1.09451 19.7174 1.20606 23.5413 5.37722L23.9968 5.87393L24.469 5.39381C26.3716 3.45854 28.9352 2.3932 31.5929 2.43991C34.2506 2.48661 36.775 3.64127 38.6086 5.64203C40.4299 7.6279 41.4223 10.2863 41.374 13.0351Z" fill="#FF0000"/>
<path d="M41.374 13.0351C41.3257 15.784 40.2403 18.4061 38.3505 20.3266C34.0006 24.7488 29.7757 29.3656 25.269 33.622C24.2362 34.5832 22.6259 34.5191 21.6721 33.4787L9.14396 19.8133C5.35719 15.6826 5.47246 9.12369 9.40204 5.12873C13.3702 1.09451 19.7174 1.20606 23.5413 5.37722L23.9968 5.87393L24.469 5.39381C26.3716 3.45854 28.9352 2.3932 31.5929 2.43991C34.2506 2.48661 36.775 3.64127 38.6086 5.64203C40.4299 7.6279 41.4223 10.2863 41.374 13.0351Z" stroke="#FF0000" stroke-width="3" stroke-linejoin="round"/>
</g>
<defs>
<filter id="filter0_d_227_560" x="0.876953" y="0.674469" width="45.998" height="43.1285" filterUnits="userSpaceOnUse" color-interpolation-filters="sRGB">
<feFlood flood-opacity="0" result="BackgroundImageFix"/>
<feColorMatrix in="SourceAlpha" type="matrix" values="0 0 0 0 0 0 0 0 0 0 0 0 0 0 0 0 0 0 127 0" result="hardAlpha"/>
<feOffset dy="4"/>
<feGaussianBlur stdDeviation="2"/>
<feComposite in2="hardAlpha" operator="out"/>
<feColorMatrix type="matrix" values="0 0 0 0 0 0 0 0 0 0 0 0 0 0 0 0 0 0 0.25 0"/>
<feBlend mode="normal" in2="BackgroundImageFix" result="effect1_dropShadow_227_560"/>
<feBlend mode="normal" in="SourceGraphic" in2="effect1_dropShadow_227_560" result="shape"/>
</filter>
</defs>
</svg>
