<svg width="40" height="36" viewBox="0 0 40 36" fill="none" xmlns="http://www.w3.org/2000/svg">
<path d="M38.3342 12.247C38.3405 15.068 37.2537 17.7818 35.3018 19.8187C30.8267 24.4588 26.4853 29.297 21.8452 33.7667C20.78 34.775 19.0915 34.7383 18.074 33.6842L4.69984 19.8205C0.657344 15.6295 0.657344 8.8645 4.69984 4.67533C5.65527 3.6725 6.8044 2.87412 8.07756 2.32862C9.35072 1.78311 10.7214 1.50183 12.1065 1.50183C13.4916 1.50183 14.8623 1.78311 16.1355 2.32862C17.4086 2.87412 18.5578 3.6725 19.5132 4.67533L20.0008 5.17767L20.4867 4.67533C21.444 3.67487 22.5935 2.87796 23.8662 2.33234C25.1389 1.78672 26.5086 1.50362 27.8933 1.5C30.68 1.5 33.3438 2.644 35.3 4.67533C37.2525 6.71188 38.34 9.42571 38.3342 12.247Z" stroke="#C30303" stroke-width="1.875" stroke-linejoin="round"/>
</svg>
